    Stream #0:0: Video: h264 (High), yuv420p(tv, bt709, progressive), 1920x1080 [SAR 1:1 DAR 16:9], 24 fps, 24 tbr, 1k tbn, 48 tbc (default)
    Stream #0:1: Audio: aac (LC), 44100 Hz, stereo, fltp (default)
